<?xml version="1.0" encoding="UTF-8"?>
<svg id="Layer_2" xmlns="http://www.w3.org/2000/svg" viewBox="0 0 230 230">
    <defs>
        <style>.cls-1{fill:#11426d;}.cls-2{fill:#656e78;}.cls-3{fill:#202128;}</style>
    </defs>
    <g id="Layer_1-2">
        <path class="cls-3"
            d="M209.07,170.09c.04,12.03-9.69,21.82-21.72,21.86s-21.82-9.69-21.86-21.72c-.04-12.03,9.69-21.82,21.72-21.86,12.03-.04,21.82,9.69,21.86,21.72ZM42.66,148.37c-12.03-.04-21.82,9.69-21.86,21.72-.04,12.03,9.69,21.82,21.72,21.86s21.82-9.69,21.86-21.72c.04-12.03-9.69-21.82-21.72-21.86ZM229.87,169.57c.08,23.69-19.07,42.96-42.76,43.03s-42.96-19.07-43.03-42.76c0-.51,0-1.03.03-1.53l-29.08-38.54s-.06,0-.09,0-.06,0-.09,0l-29.08,38.54c.02.51.03,1.02.03,1.53-.07,23.69-19.34,42.84-43.03,42.76C19.07,212.53-.07,193.26,0,169.57s19.34-42.84,43.03-42.76c.75,0,1.51.02,2.25.07l38.92-26.7-.26.18c.93,16.3,14.44,29.23,30.97,29.23s30.06-12.95,30.97-29.26l-.22-.15,38.92,26.7c.75-.04,1.5-.06,2.25-.07,23.69-.07,42.96,19.07,43.03,42.76ZM71.06,170.25c.05-15.89-12.79-28.82-28.68-28.87-15.89-.05-28.82,12.79-28.87,28.68-.05,15.89,12.79,28.82,28.68,28.87,15.89.05,28.82-12.79,28.87-28.68ZM216.36,170.07c-.05-15.89-12.97-28.73-28.87-28.68s-28.73,12.97-28.68,28.87c.05,15.89,12.97,28.73,28.87,28.68s28.73-12.97,28.68-28.87ZM114.66,115.34c.09,0,.18,0,.27,0,.09,0,.18,0,.27,0,9.35-.03,16.97-7.41,17.39-16.65.01-.29.02-.58.02-.87-.03-9.64-7.87-17.44-17.52-17.41-.05,0-.11,0-.16,0-.05,0-.11,0-.16,0-9.64-.03-17.49,7.76-17.52,17.41,0,.35.01.7.03,1.04.51,9.16,8.08,16.45,17.38,16.48ZM83.94,100.35l.26-.18c-.01-.35-.02-.7-.02-1.05-.02-6.43,1.93-12.4,5.29-17.35-.08-.2-.17-.41-.25-.61,5.25-7.75,13.92-12.99,23.84-13.57.14.24.28.48.42.72.07,0,.15,0,.23,0,.15,0,.3-.01.45-.02.12,0,.25,0,.37,0,.1,0,.2,0,.31,0,.03,0,.07,0,.1,0s.07,0,.1,0c.1,0,.2,0,.31,0,.12,0,.25,0,.37,0,.15,0,.3,0,.45.02.08,0,.15,0,.23,0,.14-.24.28-.48.42-.72,9.86.6,18.47,5.79,23.72,13.47-.08.19-.16.38-.23.57,3.42,4.97,5.41,11,5.39,17.49,0,.35-.01.7-.02,1.05l.22.15c-.92,16.31-14.43,29.26-30.97,29.26s-30.04-12.93-30.97-29.23ZM91.32,98.94c.04,13.08,10.58,23.67,23.62,23.83,13.04-.16,23.58-10.75,23.62-23.83.01-3.23-.63-6.32-1.78-9.14-3.53-8.62-11.96-14.72-21.84-14.85-9.93.12-18.4,6.3-21.9,15-1.12,2.78-1.73,5.81-1.72,8.99Z" />
        <path class="cls-2"
            d="M89.48,81.77c-4.12-9.9-8.17-21.03-11.64-32.19-5.63-18.08-8.44-30.87-8.44-38.4,0-2.4.23-4.86.7-7.39.47-2.53,1.16-3.79,2.1-3.79.4,0,.9.45,1.5,1.35.6.9,1.2,1.91,1.8,3.05l1.7,3.4c.53,1.07.9,1.73,1.1,2l18.48,30.36c5.49,9.07,11.34,18.93,16.72,28.16-9.92.58-18.75,5.72-24,13.47ZM140.3,81.63c4.02-9.75,8.02-20.79,11.54-32,5.76-18.38,8.64-31.19,8.64-38.45,0-2.6-.25-5.11-.75-7.54-.5-2.43-1.22-3.65-2.15-3.65-.73,0-1.86,1.58-3.4,4.74-1.53,3.16-2.4,4.84-2.6,5.04l-18.48,30.36c-5.49,9.07-11.34,18.93-16.72,28.16,9.86.6,18.65,5.65,23.91,13.33Z" />
        <path class="cls-1"
            d="M153.16,54.78c1.56-.1,3.16.45,4.37,1.65,2.2,2.19,2.24,5.72.07,7.86-2.1,2.11-5.49,2.13-7.69.1-1.69,4.79-3.45,9.49-5.24,14.01-.35,1.04-.71,2.07-1.07,3.1,0,0,0,0,0,.01,5.74,1.49,9.98,6.79,9.98,13.08,0,2.34-.58,4.54-1.61,6.46l21.88,15.01c4.91.04,9.68,1.01,14.18,2.91,3.72,1.57,7.12,3.71,10.14,6.38,2.24.56,4.43,1.3,6.58,2.2.66.28,1.31.57,1.95.88,0-.19.01-.38,0-.58.01-1.27-.13-2.49-.38-3.68l-13.43-67.61c-2.92-15.57-16.19-27.38-32.25-27.78-1.44,6.09-3.47,13.3-6.1,21.7-.45,1.44-.91,2.87-1.38,4.31ZM167.28,73.98c-2.15,2.16-5.67,2.13-7.86-.06h0c-2.19-2.19-2.22-5.71-.06-7.88,2.15-2.15,5.67-2.11,7.86.07,2.2,2.19,2.24,5.72.07,7.86ZM176.77,56.56c2.2,2.19,2.24,5.72.07,7.86-2.15,2.16-5.67,2.13-7.86-.06-2.19-2.19-2.22-5.71-.06-7.88,2.15-2.15,5.67-2.11,7.86.07ZM159.22,46.8c2.15-2.15,5.67-2.11,7.86.07,2.2,2.19,2.24,5.72.07,7.86-2.15,2.16-5.67,2.13-7.86-.06-2.19-2.19-2.22-5.71-.06-7.88ZM31.72,125.36c3.02-2.67,6.42-4.81,10.14-6.38,4.5-1.9,9.26-2.87,14.18-2.91l22.12-15.18c-.97-1.88-1.53-4.02-1.53-6.29,0-6.14,4.03-11.32,9.55-12.96-.36-1.03-.72-2.06-1.07-3.1-1.73-4.32-3.42-8.79-5.03-13.32l-1.22-1.24c-1.58-1.61-2-3.95-1.26-5.96-.85-2.53-1.67-5.07-2.45-7.6-.04-.12-.08-.25-.11-.37l-1.02,1.04c-2.15,2.19-5.67,2.19-7.82,0l-2.2-2.23c-2.16-2.18-1.53-4.69,1.41-5.55h7.6c-1.58-5.41-2.86-10.24-3.85-14.54-16.02.45-29.25,12.26-32.15,27.8l-13.43,67.61c-.25,1.19-.39,2.42-.38,3.69,0,.19,0,.38,0,.57.64-.31,1.29-.6,1.95-.88,2.15-.91,4.34-1.64,6.58-2.2ZM66.17,68.92c2.15-2.19,5.67-2.19,7.82,0l2.19,2.23c2.15,2.19,1.52,4.68-1.4,5.55h-9.41c-2.93-.86-3.56-3.35-1.4-5.55l2.2-2.23ZM53.67,55.22c.84-2.98,3.31-3.62,5.46-1.43l2.19,2.23c2.15,2.19,2.15,5.77,0,7.95l-2.19,2.23c-2.15,2.2-4.62,1.55-5.47-1.42v-9.56Z" />
    </g>
</svg>